# xmcd
# Track frame offsets:
# 150
# 20195
# 36227
# 53804
# 69495
# 85917
# 102275
# 121362
# 137432
# 154725
# 175649
# 189856
# 204491
#
# Disc length: 3005 seconds
# Revision: 0
# Processed by: cddbd v1.5.2PL0 Copyright (c) Steve Scherf et al.
# Submitted via: VisiTrax 2.11.2.271 - For more info visit www.synapsa.com
#
DISCID=a90bbb0d
DTITLE=Diggles, Mick - It's My own Blues
DYEAR=2011
DGENRE=Blues
TTITLE0=Diggles, Mick - Thinking Bout U
TTITLE1=Diggles, Mick - I'm Go Away
TTITLE2=Diggles, Mick - Windy City
TTITLE3=Diggles, Mick - Trouble (Never Let Me Down)
TTITLE4=Diggles, Mick - Ned Kelly and Thunderbolt
TTITLE5=Diggles, Mick - Skinny Minnie
TTITLE6=Diggles, Mick - Mean Old Down Under Blues
TTITLE7=Diggles, Mick - Mean Things
TTITLE8=Diggles, Mick - Pistol Packin' Moma
TTITLE9=Diggles, Mick - Paid My Dues
TTITLE10=Diggles, Mick - Man Named Jones
TTITLE11=Diggles, Mick - Soul Thang
TTITLE12=Diggles. Mick - Devil Comes Knockin'
EXTD=
EXTT0=
EXTT1=
EXTT2=
EXTT3=
EXTT4=
EXTT5=
EXTT6=
EXTT7=
EXTT8=
EXTT9=
EXTT10=
EXTT11=
EXTT12=
PLAYORDER=
